<svg id="Layer_1" style="enable-background:new 0 0 391.4 246;" version="1.1" viewBox="0 0 391.4 246" x="0px" xml:space="preserve" xmlns="http://www.w3.org/2000/svg" xmlns:xlink="http://www.w3.org/1999/xlink" y="0px"><style type="text/css">
	.cls-st-logo-2019{fill:#3C3C3B;}
	.cls-st1-logo-2019{enable-background:new    ;}
</style><g id="Anyone_Can_Make_1_"><g><path class="cls-st-logo-2019" d="M305.6,82.3c1.3,1.2,2.2,2.7,2.9,4.3c0.7,1.7,1,3.4,1,5.3l-0.1,19.5c0,1.8-0.4,3.5-1.1,5.1s-1.7,3-2.9,4.2
			c-1.2,1.1-2.6,2.1-4.3,2.7c-1.6,0.7-3.3,1-5.1,1c-2.1,0-4-0.4-5.7-1.1s-3.1-1.7-4.4-2.9c-1.3-1.2-2.2-2.7-2.9-4.3
			c-0.7-1.7-1-3.4-0.9-5.3V91.4c0-1.8,0.4-3.5,1.1-5.1s1.7-3,2.9-4.2c1.2-1.1,2.6-2.1,4.3-2.7c1.6-0.7,3.4-1,5.4-1s3.8,0.4,5.4,1.1
			C302.8,80.1,304.3,81.1,305.6,82.3L305.6,82.3z M351.4,51.5V154c0,5.4-4.4,9.7-9.7,9.7H49.1c-5.4,0-9.7-4.4-9.7-9.7V51.5
			c0-5.4,4.4-9.7,9.7-9.7h292.6C347,41.8,351.4,46.2,351.4,51.5z M57.8,150.7c0-2.9-2.4-5.3-5.3-5.3c-2.9,0-5.3,2.4-5.3,5.3
			c0,2.9,2.4,5.3,5.3,5.3C55.4,155.9,57.8,153.6,57.8,150.7z M57.8,55c0-2.9-2.4-5.3-5.3-5.3c-2.9,0-5.3,2.4-5.3,5.3
			c0,2.9,2.4,5.3,5.3,5.3C55.4,60.3,57.8,57.9,57.8,55z M94.1,101.5l28.6-24.9c1.6-1.6,2.4-3.6,2.4-5.8c0-2.2-0.8-4.2-2.4-5.8
			c-1.6-1.6-3.6-2.4-5.8-2.4c-2.2,0-4.2,0.8-5.9,2.4L82.5,89.9V70.7c0-2.2-0.8-4.1-2.4-5.7s-3.6-2.4-5.9-2.4S70,63.4,68.3,65
			c-1.6,1.6-2.4,3.5-2.4,5.7v61.5c0,2.3,0.8,4.2,2.4,5.8s3.6,2.4,5.9,2.4c2.4,0,4.3-0.8,5.9-2.4c1.6-1.6,2.4-3.5,2.4-5.8V113
			l28.4,25.2c1.7,1.5,3.7,2.3,5.9,2.3c2.3,0,4.2-0.8,5.8-2.3c1.6-1.7,2.4-3.7,2.4-5.9c0-2.3-0.8-4.2-2.4-5.8L94.1,101.5z M192.2,91
			c0-4.1-0.8-7.8-2.4-11.4s-3.8-6.5-6.5-9.1s-5.8-4.6-9.4-6c-3.6-1.4-7.3-2.1-11.2-2.1c-4.2,0-8.1,0.8-11.7,2.3
			c-3.6,1.5-6.7,3.6-9.3,6.3c-2.7,2.7-4.7,5.8-6.2,9.4s-2.3,7.4-2.4,11.5v40.6c0,2.1,0.8,3.9,2.4,5.4c1.6,1.5,3.5,2.2,5.6,2.2
			s4-0.8,5.6-2.4c1.6-1.6,2.4-3.4,2.4-5.5v-13.9h27.2v14.3c0,2.2,0.8,4,2.4,5.4c1.6,1.4,3.5,2.1,5.7,2.1c2.2-0.1,4-0.9,5.6-2.4
			c1.5-1.5,2.3-3.4,2.3-5.5V91H192.2z M259,91.4c0-4.1-0.8-7.8-2.4-11.4c-1.6-3.5-3.8-6.5-6.5-9.1s-5.8-4.6-9.4-6
			c-3.6-1.4-7.3-2.1-11.2-2.1c-4.2,0-8.1,0.8-11.7,2.3c-3.6,1.5-6.7,3.7-9.3,6.4c-2.7,2.7-4.7,5.8-6.2,9.4s-2.3,7.4-2.4,11.5V133
			c0,2.1,0.8,3.9,2.4,5.4c1.6,1.5,3.5,2.2,5.6,2.2s4-0.8,5.6-2.4c1.6-1.6,2.4-3.4,2.4-5.6V91.7c0-1.8,0.4-3.5,1.1-5.1
			c0.8-1.6,1.7-3,2.9-4.1s2.7-2.1,4.3-2.8c1.6-0.7,3.3-1,5.1-1c2,0,3.7,0.4,5.4,1.1s3.1,1.7,4.4,2.9c1.2,1.2,2.2,2.7,2.9,4.3
			c0.7,1.7,1,3.4,1,5.3v40.6c0,2.2,0.8,4,2.4,5.4c1.6,1.4,3.5,2.1,5.7,2.1c2.2-0.1,4-0.9,5.5-2.4s2.3-3.4,2.3-5.5V91.4H259z
			 M325.4,91c0-4.1-0.8-7.8-2.4-11.4c-1.6-3.5-3.8-6.5-6.5-9.1s-5.8-4.6-9.4-6s-7.3-2.1-11.2-2.1c-4.4,0-8.4,0.8-12,2.3
			c-3.6,1.5-6.7,3.6-9.3,6.3c-2.7,2.7-4.7,5.8-6.2,9.4s-2.3,7.4-2.3,11.5v19.9c0,4.1,0.8,7.9,2.4,11.4s3.8,6.5,6.5,9.1
			s5.8,4.5,9.4,6c3.6,1.4,7.4,2.1,11.5,2.1c4.2,0,8.1-0.8,11.7-2.3s6.7-3.7,9.3-6.4c2.7-2.7,4.7-5.8,6.2-9.4s2.3-7.4,2.3-11.5V91z
			 M343.6,150.7c0-2.9-2.4-5.3-5.3-5.3s-5.3,2.4-5.3,5.3c0,2.9,2.4,5.3,5.3,5.3C341.3,155.9,343.6,153.6,343.6,150.7z M343.6,55
			c0-2.9-2.4-5.3-5.3-5.3S333,52.1,333,55s2.4,5.3,5.3,5.3C341.3,60.3,343.6,57.9,343.6,55z M172.3,82.3c-1.3-1.2-2.7-2.2-4.4-2.9
			c-1.7-0.7-3.5-1.1-5.4-1.1c-1.8,0-3.5,0.3-5.1,1s-3.1,1.6-4.3,2.7s-2.2,2.5-2.9,4.2c-0.7,1.6-1.1,3.3-1.1,5.1v11h27.2V92
			c0-1.9-0.3-3.6-1-5.3C174.6,85,173.6,83.5,172.3,82.3L172.3,82.3z"></path><g><g class="cls-st1-logo-2019"><path class="cls-st-logo-2019" d="M44.1,191.3c-0.5,0.3-0.8,0.5-1.4,0.5c-1.2,0-2.1-1-2.1-2.1c0-0.5,0.2-1,0.6-1.5c1.3-1.4,3.5-2.9,7.4-2.9
					c5.6,0,9,2.8,9,7.6v11.6c0,1.3-1.1,2.4-2.4,2.4c-1.3,0-2.4-1.1-2.4-2.4c-1.2,1.9-3.2,2.6-5.9,2.6c-4.4,0-7.4-2.8-7.4-6.8
					c0-4.2,3.4-6.4,7.3-6.4h5.9V193c0-2-1.5-3.4-4.1-3.4C46.6,189.6,45.2,190.5,44.1,191.3z M52.8,198.9v-1.3h-5.3
					c-2,0-3.1,1-3.1,2.6c0,1.7,1.2,2.8,3.8,2.8C50.5,202.9,52.8,201.4,52.8,198.9z"></path><path class="cls-st-logo-2019" d="M80.2,193.1v11.3c0,1.4-1.1,2.4-2.4,2.4c-1.4,0-2.4-1-2.4-2.4V194c0-2.6-1-4.3-4-4.3c-3.4,0-4.5,2-4.5,4.7
					v10.1c0,1.4-1,2.4-2.4,2.4s-2.4-1-2.4-2.4V188c0-1.4,1.1-2.4,2.4-2.4s2.4,1.1,2.4,2.4c0.9-1.3,2.8-2.7,5.8-2.7
					C78.8,185.2,80.2,189.2,80.2,193.1z"></path><path class="cls-st-logo-2019" d="M89.3,205l-7-16.1c-0.1-0.2-0.2-0.5-0.2-1c0-1.4,1.1-2.4,2.4-2.4c1.4,0,2,1,2.3,1.5l5,12.6l5-12.6
					c0.2-0.6,0.9-1.5,2.3-1.5s2.4,1.1,2.4,2.4c0,0.4-0.1,0.7-0.2,1l-8.4,19c-2,4.4-4.8,7.6-9.4,7.6c-1.3,0-2.4-1-2.4-2.3
					s1-2.3,2.4-2.3C86.4,211,87.8,208.7,89.3,205z"></path><path class="cls-st-logo-2019" d="M112.6,207c-6.1,0-9.9-3.5-9.9-10.9s3.8-10.9,9.9-10.9s9.9,3.5,9.9,10.9S118.7,207,112.6,207z M112.6,189.4
					c-3.3,0-5,2.3-5,6.7s1.7,6.7,5,6.7s5-2.3,5-6.7S115.8,189.4,112.6,189.4z"></path><path class="cls-st-logo-2019" d="M144.4,193.1v11.3c0,1.4-1.1,2.4-2.4,2.4c-1.4,0-2.4-1-2.4-2.4V194c0-2.6-1-4.3-4-4.3c-3.4,0-4.5,2-4.5,4.7
					v10.1c0,1.4-1,2.4-2.4,2.4s-2.4-1-2.4-2.4V188c0-1.4,1.1-2.4,2.4-2.4s2.4,1.1,2.4,2.4c0.9-1.3,2.8-2.7,5.8-2.7
					C142.9,185.2,144.4,189.2,144.4,193.1z"></path><path class="cls-st-logo-2019" d="M157.6,185.2c7.7,0,9.1,5.9,9.1,9c0,1.7,0,3.6-2.8,3.6h-11.2c0,3.3,2.3,4.8,5.3,4.8c2,0,3.4-0.7,4.5-1.4
					c0.5-0.3,0.9-0.5,1.4-0.5c1.2,0,2.1,1,2.1,2.1c0,0.7-0.4,1.3-0.8,1.7c-0.8,0.7-3.2,2.5-7.3,2.5c-6.3,0-10.2-3.4-10.2-11
					C147.8,189.1,151.4,185.2,157.6,185.2z M152.8,193.8h9c0-2.2-1.3-4.4-4.2-4.4C154.9,189.4,153,190.9,152.8,193.8z"></path><path class="cls-st-logo-2019" d="M189.1,185.2c4.2,0,6.6,2.1,7.4,3.1c0.4,0.5,0.5,0.9,0.5,1.4c0,1.2-1,2.2-2.2,2.2c-0.7,0-1.3-0.3-1.7-0.8
					c-0.6-0.6-1.8-1.8-4-1.8c-3.2,0-4.9,2.4-4.9,6.7s1.7,6.7,4.9,6.7c2.1,0,3.4-1,4.5-1.8c0.5-0.4,0.9-0.5,1.4-0.5
					c1.2,0,2.2,1,2.2,2.2c0,0.6-0.2,1.2-0.8,1.7c-1,1-3.5,2.6-7.2,2.6c-6.2,0-9.8-3.5-9.8-10.9C179.3,188.7,183,185.2,189.1,185.2z"></path><path class="cls-st-logo-2019" d="M204.2,191.3c-0.5,0.3-0.8,0.5-1.4,0.5c-1.2,0-2.1-1-2.1-2.1c0-0.5,0.2-1,0.6-1.5c1.3-1.4,3.5-2.9,7.4-2.9
					c5.6,0,9,2.8,9,7.6v11.6c0,1.3-1.1,2.4-2.4,2.4s-2.4-1.1-2.4-2.4c-1.2,1.9-3.2,2.6-5.9,2.6c-4.4,0-7.4-2.8-7.4-6.8
					c0-4.2,3.4-6.4,7.3-6.4h5.9V193c0-2-1.5-3.4-4.1-3.4C206.8,189.6,205.4,190.5,204.2,191.3z M212.9,198.9v-1.3h-5.3
					c-2,0-3.1,1-3.1,2.6c0,1.7,1.2,2.8,3.8,2.8C210.7,202.9,212.9,201.4,212.9,198.9z"></path><path class="cls-st-logo-2019" d="M240.3,193.1v11.3c0,1.4-1.1,2.4-2.4,2.4c-1.4,0-2.4-1-2.4-2.4V194c0-2.6-1-4.3-4-4.3c-3.4,0-4.5,2-4.5,4.7
					v10.1c0,1.4-1,2.4-2.4,2.4s-2.4-1-2.4-2.4V188c0-1.4,1.1-2.4,2.4-2.4s2.4,1.1,2.4,2.4c0.9-1.3,2.8-2.7,5.8-2.7
					C238.9,185.2,240.3,189.2,240.3,193.1z"></path><path class="cls-st-logo-2019" d="M286.6,193.1v11.3c0,1.4-1.1,2.4-2.4,2.4c-1.4,0-2.4-1-2.4-2.4V194c0-2.6-1-4.3-4-4.3
					c-3.3,0-4.5,1.8-4.5,4.3v10.5c0,1.4-1.1,2.4-2.4,2.4c-1.4,0-2.4-1-2.4-2.4V194c0-2.6-1-4.3-4-4.3c-3.4,0-4.5,2-4.5,4.7v10.1
					c0,1.4-1,2.4-2.4,2.4s-2.4-1-2.4-2.4V188c0-1.4,1.1-2.4,2.4-2.4s2.4,1.1,2.4,2.4c0.9-1.3,2.8-2.7,5.8-2.7c3.7,0,5.6,1.2,6.7,2.9
					c1.4-1.9,3.4-2.9,6.5-2.9C284.9,185.2,286.6,189.2,286.6,193.1z"></path><path class="cls-st-logo-2019" d="M294.5,191.3c-0.5,0.3-0.8,0.5-1.4,0.5c-1.2,0-2.1-1-2.1-2.1c0-0.5,0.2-1,0.6-1.5c1.3-1.4,3.5-2.9,7.4-2.9
					c5.6,0,9,2.8,9,7.6v11.6c0,1.3-1.1,2.4-2.4,2.4s-2.4-1.1-2.4-2.4c-1.2,1.9-3.2,2.6-5.9,2.6c-4.4,0-7.4-2.8-7.4-6.8
					c0-4.2,3.4-6.4,7.3-6.4h5.9V193c0-2-1.5-3.4-4.1-3.4C297,189.6,295.6,190.5,294.5,191.3z M303.1,198.9v-1.3h-5.3
					c-2,0-3.1,1-3.1,2.6c0,1.7,1.2,2.8,3.8,2.8C300.9,202.9,303.1,201.4,303.1,198.9z"></path><path class="cls-st-logo-2019" d="M325.6,205.8l-6.7-9.1l-1.4,1.1v6.5c0,1.4-1.1,2.4-2.4,2.4c-1.4,0-2.4-1-2.4-2.4v-27.9c0-1.4,1-2.4,2.4-2.4
					s2.4,1,2.4,2.4v16l8.2-6.4c0.6-0.5,1-0.6,1.6-0.6c1.3,0,2.4,1,2.4,2.4c0,0.7-0.3,1.4-0.9,1.9l-5.9,4.5l6.7,8.7
					c0.4,0.5,0.5,1,0.5,1.4c0,1.3-1,2.4-2.4,2.4C326.6,206.8,326,206.4,325.6,205.8z"></path><path class="cls-st-logo-2019" d="M341.7,185.2c7.7,0,9.1,5.9,9.1,9c0,1.7,0,3.6-2.8,3.6h-11.2c0,3.3,2.3,4.8,5.3,4.8c2,0,3.4-0.7,4.5-1.4
					c0.5-0.3,0.9-0.5,1.4-0.5c1.2,0,2.1,1,2.1,2.1c0,0.7-0.4,1.3-0.8,1.7c-0.8,0.7-3.2,2.5-7.3,2.5c-6.3,0-10.2-3.4-10.2-11
					C331.9,189.1,335.5,185.2,341.7,185.2z M336.9,193.8h9c0-2.2-1.3-4.4-4.2-4.4C339,189.4,337.1,190.9,336.9,193.8z"></path></g></g></g></g><g><path class="cls-st-logo-2019" d="M358,176.9c0.4,0,0.7,0.4,0.7,0.7c0,0.4-0.3,0.7-0.7,0.7h-1.8v5.8c0,0.4-0.4,0.8-0.8,0.8
		c-0.5,0-0.8-0.4-0.8-0.8v-5.8h-1.9c-0.4,0-0.7-0.4-0.7-0.7c0-0.4,0.3-0.7,0.7-0.7H358z M363,182.9l-1.4-2.4v3.7
		c0,0.4-0.4,0.8-0.8,0.8c-0.4,0-0.8-0.4-0.8-0.8v-6.7c0-0.4,0.4-0.8,0.8-0.8c0.4,0,0.7,0.3,0.7,0.5l2.1,3.8l2.1-3.8
		c0.1-0.2,0.3-0.5,0.7-0.5c0.4,0,0.8,0.4,0.8,0.8v6.7c0,0.4-0.4,0.8-0.8,0.8c-0.4,0-0.8-0.4-0.8-0.8v-3.7l-1.4,2.4
		c-0.1,0.2-0.4,0.4-0.7,0.4C363.3,183.3,363.1,183.2,363,182.9z"></path></g></svg>
